<svg xmlns="http://www.w3.org/2000/svg" viewBox="0 0 800 450">
  <defs>
    <linearGradient id="bg" x1="0" y1="0" x2="0" y2="1">
      <stop offset="0%" stop-color="#BAE6FD"/>
      <stop offset="45%" stop-color="#E0F2FE"/>
      <stop offset="100%" stop-color="#F0F9FF"/>
    </linearGradient>
    <linearGradient id="ground" x1="0" y1="0" x2="0" y2="1">
      <stop offset="0%" stop-color="#14532D"/>
      <stop offset="100%" stop-color="#052E16"/>
    </linearGradient>
  </defs>
  <rect width="800" height="450" fill="url(#bg)"/>
  <rect x="0" y="315" width="800" height="135" fill="url(#ground)"/>
  <rect x="180" y="295" width="440" height="20" fill="#0F172A" opacity="0.5"/>
  <rect x="250" y="262" width="300" height="33" fill="#1E293B" opacity="0.75"/>
  <rect x="265" y="242" width="270" height="22" fill="#1E293B" opacity="0.7"/>
  <rect x="330" y="190" width="140" height="52" fill="#1E293B" opacity="0.65"/>
  <ellipse cx="400" cy="190" rx="60" ry="52" fill="#1E293B" opacity="0.65"/>
  <ellipse cx="400" cy="145" rx="42" ry="55" fill="#1E293B" opacity="0.65"/>
  <ellipse cx="400" cy="112" rx="26" ry="36" fill="#1E293B" opacity="0.65"/>
  <rect x="395" y="72" width="10" height="25" fill="#1E293B" opacity="0.7"/>
  <ellipse cx="400" cy="70" rx="6" ry="5" fill="#D4AF37" opacity="0.8"/>
  <rect x="328" y="190" width="14" height="72" fill="#1E293B" opacity="0.7"/>
  <ellipse cx="335" cy="188" rx="10" ry="32" fill="#1E293B" opacity="0.65"/>
  <rect x="335" y="157" width="8" height="15" fill="#1E293B" opacity="0.7"/>
  <ellipse cx="339" cy="155" rx="5" ry="7" fill="#D4AF37" opacity="0.75"/>
  <rect x="458" y="190" width="14" height="72" fill="#1E293B" opacity="0.7"/>
  <ellipse cx="465" cy="188" rx="10" ry="32" fill="#1E293B" opacity="0.65"/>
  <rect x="457" y="157" width="8" height="15" fill="#1E293B" opacity="0.7"/>
  <ellipse cx="461" cy="155" rx="5" ry="7" fill="#D4AF37" opacity="0.75"/>
  <ellipse cx="400" cy="315" rx="120" ry="8" fill="#38BDF8" opacity="0.35"/>
  <rect x="0" y="390" width="800" height="60" fill="#000000" opacity="0.45"/>
  <text x="400" y="422" font-family="Georgia,serif" font-size="30" font-weight="bold" fill="#1E293B" text-anchor="middle" letter-spacing="8">AGRA</text>
  <text x="400" y="441" font-family="Arial,sans-serif" font-size="12" fill="#475569" text-anchor="middle" letter-spacing="3">Uttar Pradesh · Tier 1 City</text>
</svg>
