<svg xmlns="http://www.w3.org/2000/svg" viewBox="0 0 800 450">
  <defs>
    <linearGradient id="bg" x1="0" y1="0" x2="0" y2="1">
      <stop offset="0%" stop-color="#052E16"/>
      <stop offset="48%" stop-color="#15803D"/>
      <stop offset="100%" stop-color="#86EFAC"/>
    </linearGradient>
    <linearGradient id="glass" x1="0" y1="0" x2="1" y2="1">
      <stop offset="0%" stop-color="#0F172A"/>
      <stop offset="100%" stop-color="#1E293B"/>
    </linearGradient>
  </defs>
  <rect width="800" height="450" fill="url(#bg)"/>
  <rect x="360" y="138" width="80" height="177" fill="url(#glass)"/>
  <rect x="367" y="146" width="3" height="162" fill="#22D3EE" opacity="0.13"/>
  <rect x="365" y="152" width="8" height="6" fill="#7DD3FC" opacity="0.5"/>
  <rect x="378" y="152" width="8" height="6" fill="#7DD3FC" opacity="0.38"/>
  <rect x="391" y="152" width="8" height="6" fill="#FDE68A" opacity="0.45"/>
  <rect x="404" y="152" width="8" height="6" fill="#7DD3FC" opacity="0.4"/>
  <rect x="417" y="152" width="8" height="6" fill="#7DD3FC" opacity="0.5"/>
  <rect x="365" y="165" width="8" height="6" fill="#FDE68A" opacity="0.4"/>
  <rect x="378" y="165" width="8" height="6" fill="#7DD3FC" opacity="0.5"/>
  <rect x="391" y="165" width="8" height="6" fill="#7DD3FC" opacity="0.42"/>
  <rect x="404" y="165" width="8" height="6" fill="#FDE68A" opacity="0.48"/>
  <rect x="417" y="165" width="8" height="6" fill="#7DD3FC" opacity="0.4"/>
  <rect x="365" y="178" width="8" height="6" fill="#7DD3FC" opacity="0.45"/>
  <rect x="378" y="178" width="8" height="6" fill="#FDE68A" opacity="0.4"/>
  <rect x="391" y="178" width="8" height="6" fill="#7DD3FC" opacity="0.5"/>
  <rect x="404" y="178" width="8" height="6" fill="#7DD3FC" opacity="0.38"/>
  <rect x="417" y="178" width="8" height="6" fill="#FDE68A" opacity="0.45"/>
  <rect x="228" y="183" width="62" height="132" fill="url(#glass)"/>
  <rect x="235" y="191" width="3" height="117" fill="#22D3EE" opacity="0.1"/>
  <rect x="238" y="193" width="8" height="6" fill="#7DD3FC" opacity="0.5"/>
  <rect x="251" y="193" width="8" height="6" fill="#FDE68A" opacity="0.42"/>
  <rect x="264" y="193" width="8" height="6" fill="#7DD3FC" opacity="0.4"/>
  <rect x="238" y="206" width="8" height="6" fill="#FDE68A" opacity="0.38"/>
  <rect x="251" y="206" width="8" height="6" fill="#7DD3FC" opacity="0.5"/>
  <rect x="264" y="206" width="8" height="6" fill="#FDE68A" opacity="0.42"/>
  <rect x="510" y="162" width="65" height="153" fill="url(#glass)"/>
  <rect x="517" y="170" width="3" height="138" fill="#22D3EE" opacity="0.1"/>
  <rect x="521" y="172" width="8" height="6" fill="#7DD3FC" opacity="0.5"/>
  <rect x="534" y="172" width="8" height="6" fill="#FDE68A" opacity="0.4"/>
  <rect x="547" y="172" width="8" height="6" fill="#7DD3FC" opacity="0.52"/>
  <rect x="560" y="172" width="8" height="6" fill="#FDE68A" opacity="0.38"/>
  <rect x="521" y="185" width="8" height="6" fill="#FDE68A" opacity="0.45"/>
  <rect x="534" y="185" width="8" height="6" fill="#7DD3FC" opacity="0.5"/>
  <rect x="100" y="208" width="50" height="107" fill="#0F172A" opacity="0.78"/>
  <rect x="155" y="222" width="44" height="93" fill="#0F172A" opacity="0.68"/>
  <rect x="600" y="218" width="54" height="97" fill="#0F172A" opacity="0.78"/>
  <rect x="659" y="203" width="46" height="112" fill="#0F172A" opacity="0.68"/>
  <rect x="710" y="230" width="90" height="85" fill="#0F172A" opacity="0.6"/>
  <rect x="0" y="315" width="800" height="135" fill="#052E16"/>
  <ellipse cx="172" cy="315" rx="42" ry="36" fill="#14532D"/>
  <ellipse cx="205" cy="320" rx="36" ry="30" fill="#166534"/>
  <rect x="197" y="320" width="10" height="32" fill="#1C1917"/>
  <ellipse cx="628" cy="315" rx="42" ry="36" fill="#14532D"/>
  <ellipse cx="598" cy="320" rx="36" ry="30" fill="#166534"/>
  <rect x="593" y="320" width="10" height="32" fill="#1C1917"/>
  <rect x="0" y="390" width="800" height="60" fill="#000000" opacity="0.48"/>
  <text x="400" y="422" font-family="Georgia,serif" font-size="30" font-weight="bold" fill="white" text-anchor="middle" letter-spacing="8">BENGALURU</text>
  <text x="400" y="441" font-family="Arial,sans-serif" font-size="12" fill="#BBF7D0" text-anchor="middle" letter-spacing="3">Karnataka · Metro City</text>
</svg>
