<svg xmlns="http://www.w3.org/2000/svg" viewBox="0 0 800 450">
  <defs>
    <linearGradient id="bg" x1="0" y1="0" x2="0" y2="1">
      <stop offset="0%" stop-color="#0C4A6E"/>
      <stop offset="50%" stop-color="#0369A1"/>
      <stop offset="100%" stop-color="#BAE6FD"/>
    </linearGradient>
    <linearGradient id="lake" x1="0" y1="0" x2="0" y2="1">
      <stop offset="0%" stop-color="#0284C7"/>
      <stop offset="100%" stop-color="#075985"/>
    </linearGradient>
  </defs>
  <rect width="800" height="450" fill="url(#bg)"/>
  <circle cx="400" cy="135" r="44" fill="#FEF3C7" opacity="0.78"/>
  <rect x="0" y="300" width="800" height="30" fill="url(#lake)"/>
  <path d="M0 310 Q200 302 400 310 Q600 318 800 310 L800 325 Q600 333 400 325 Q200 317 0 325Z" fill="#38BDF8" opacity="0.22"/>
  <rect x="0" y="330" width="800" height="120" fill="#0C2A4A"/>
  <rect x="310" y="230" width="180" height="70" fill="#1C0A00"/>
  <ellipse cx="400" cy="200" rx="75" ry="38" fill="#1C0A00"/>
  <ellipse cx="400" cy="175" rx="52" ry="45" fill="#1C0A00"/>
  <ellipse cx="400" cy="152" rx="34" ry="32" fill="#150A00"/>
  <rect x="394" y="115" width="12" height="22" fill="#1C0A00"/>
  <ellipse cx="400" cy="113" rx="7" ry="5" fill="#D4AF37"/>
  <rect x="312" y="205" width="16" height="65" fill="#1C0A00"/>
  <ellipse cx="320" cy="203" rx="10" ry="7" fill="#D4AF37"/>
  <rect x="472" y="205" width="16" height="65" fill="#1C0A00"/>
  <ellipse cx="480" cy="203" rx="10" ry="7" fill="#D4AF37"/>
  <path d="M50 300 Q200 290 350 300 Q500 310 650 300 Q720 295 800 300 L800 310 Q720 315 650 310 Q500 320 350 310 Q200 300 50 310Z" fill="#93C5FD" opacity="0.18"/>
  <rect x="0" y="390" width="800" height="60" fill="#000000" opacity="0.48"/>
  <text x="400" y="422" font-family="Georgia,serif" font-size="30" font-weight="bold" fill="white" text-anchor="middle" letter-spacing="8">BHOPAL</text>
  <text x="400" y="441" font-family="Arial,sans-serif" font-size="12" fill="#BAE6FD" text-anchor="middle" letter-spacing="3">Madhya Pradesh · Tier 1 City</text>
</svg>
