<svg xmlns="http://www.w3.org/2000/svg" viewBox="0 0 800 450">
  <defs>
    <linearGradient id="bg" x1="0" y1="0" x2="0" y2="1">
      <stop offset="0%" stop-color="#0C4A6E"/>
      <stop offset="55%" stop-color="#0369A1"/>
      <stop offset="100%" stop-color="#7DD3FC"/>
    </linearGradient>
    <linearGradient id="sea" x1="0" y1="0" x2="0" y2="1">
      <stop offset="0%" stop-color="#075985"/>
      <stop offset="100%" stop-color="#0C4A6E"/>
    </linearGradient>
  </defs>
  <rect width="800" height="450" fill="url(#bg)"/>
  <ellipse cx="400" cy="280" rx="300" ry="55" fill="#BAE6FD" opacity="0.12"/>
  <rect x="0" y="305" width="800" height="145" fill="url(#sea)"/>
  <path d="M0 320 Q100 313 200 320 Q300 327 400 320 Q500 313 600 320 Q700 327 800 320 L800 332 Q700 339 600 332 Q500 325 400 332 Q300 339 200 332 Q100 325 0 332Z" fill="#0EA5E9" opacity="0.18"/>
  <path d="M0 348 Q150 341 300 348 Q450 355 600 348 Q700 343 800 348 L800 358 Q700 358 600 358 Q450 358 300 358 Q150 358 0 358Z" fill="#38BDF8" opacity="0.12"/>
  <rect x="0" y="298" width="800" height="9" fill="#FDE68A" opacity="0.35"/>
  <rect x="358" y="282" width="84" height="23" fill="#1E293B"/>
  <rect x="366" y="267" width="68" height="18" fill="#1E293B"/>
  <polygon points="400,122 378,267 422,267" fill="#1E293B"/>
  <polygon points="400,178 381,212 419,212" fill="#DC2626"/>
  <rect x="383" y="110" width="34" height="17" fill="#FDE68A" opacity="0.9"/>
  <ellipse cx="400" cy="110" rx="18" ry="7" fill="#FDE68A" opacity="0.9"/>
  <path d="M400 114 L328 82 L368 107Z" fill="#FEF08A" opacity="0.15"/>
  <path d="M400 114 L472 82 L432 107Z" fill="#FEF08A" opacity="0.15"/>
  <rect x="148" y="242" width="6" height="68" fill="#1C1917" opacity="0.8"/>
  <ellipse cx="151" cy="240" rx="30" ry="23" fill="#166534" opacity="0.9"/>
  <ellipse cx="168" cy="234" rx="26" ry="19" fill="#15803D" opacity="0.8"/>
  <rect x="642" y="247" width="6" height="63" fill="#1C1917" opacity="0.8"/>
  <ellipse cx="645" cy="245" rx="30" ry="23" fill="#166534" opacity="0.9"/>
  <ellipse cx="628" cy="239" rx="26" ry="19" fill="#15803D" opacity="0.8"/>
  <rect x="0" y="260" width="115" height="45" fill="#0F172A" opacity="0.68"/>
  <rect x="8" y="242" width="34" height="63" fill="#0F172A" opacity="0.68"/>
  <rect x="48" y="252" width="27" height="53" fill="#0F172A" opacity="0.6"/>
  <rect x="685" y="258" width="115" height="47" fill="#0F172A" opacity="0.68"/>
  <rect x="757" y="242" width="43" height="63" fill="#0F172A" opacity="0.68"/>
  <rect x="700" y="254" width="30" height="51" fill="#0F172A" opacity="0.6"/>
  <rect x="0" y="390" width="800" height="60" fill="#000000" opacity="0.48"/>
  <text x="400" y="422" font-family="Georgia,serif" font-size="30" font-weight="bold" fill="white" text-anchor="middle" letter-spacing="8">CHENNAI</text>
  <text x="400" y="441" font-family="Arial,sans-serif" font-size="12" fill="#BAE6FD" text-anchor="middle" letter-spacing="3">Tamil Nadu · Metro City</text>
</svg>
