<svg xmlns="http://www.w3.org/2000/svg" viewBox="0 0 800 450">
  <defs>
    <linearGradient id="bg" x1="0" y1="0" x2="0" y2="1">
      <stop offset="0%" stop-color="#111827"/>
      <stop offset="52%" stop-color="#1F2937"/>
      <stop offset="100%" stop-color="#4B5563"/>
    </linearGradient>
  </defs>
  <rect width="800" height="450" fill="url(#bg)"/>
  <circle cx="200" cy="80" r="2" fill="white" opacity="0.6"/>
  <circle cx="350" cy="55" r="1.5" fill="white" opacity="0.7"/>
  <circle cx="500" cy="70" r="1.5" fill="white" opacity="0.55"/>
  <circle cx="650" cy="45" r="2" fill="white" opacity="0.65"/>
  <circle cx="720" cy="95" r="1" fill="white" opacity="0.5"/>
  <rect x="0" y="310" width="800" height="140" fill="#0F172A"/>
  <rect x="60" y="215" width="55" height="95" fill="#1C2533"/>
  <rect x="120" y="195" width="45" height="115" fill="#1C2533"/>
  <rect x="170" y="230" width="50" height="80" fill="#1C2533"/>
  <rect x="225" y="205" width="60" height="105" fill="#1C2533"/>
  <rect x="290" y="175" width="55" height="135" fill="#1C2533"/>
  <rect x="350" y="155" width="100" height="155" fill="#1C2533"/>
  <rect x="455" y="180" width="55" height="130" fill="#1C2533"/>
  <rect x="515" y="200" width="50" height="110" fill="#1C2533"/>
  <rect x="570" y="220" width="45" height="90" fill="#1C2533"/>
  <rect x="620" y="205" width="60" height="105" fill="#1C2533"/>
  <rect x="685" y="225" width="55" height="85" fill="#1C2533"/>
  <rect x="68" y="225" width="5" height="4" fill="#FEF08A" opacity="0.55"/>
  <rect x="80" y="225" width="5" height="4" fill="#FEF08A" opacity="0.4"/>
  <rect x="68" y="237" width="5" height="4" fill="#7DD3FC" opacity="0.45"/>
  <rect x="130" y="205" width="5" height="4" fill="#FEF08A" opacity="0.6"/>
  <rect x="142" y="205" width="5" height="4" fill="#FEF08A" opacity="0.45"/>
  <rect x="300" y="185" width="5" height="4" fill="#7DD3FC" opacity="0.55"/>
  <rect x="312" y="185" width="5" height="4" fill="#FEF08A" opacity="0.5"/>
  <rect x="362" y="165" width="5" height="4" fill="#FEF08A" opacity="0.65"/>
  <rect x="374" y="165" width="5" height="4" fill="#7DD3FC" opacity="0.55"/>
  <rect x="386" y="165" width="5" height="4" fill="#FEF08A" opacity="0.5"/>
  <rect x="362" y="178" width="5" height="4" fill="#7DD3FC" opacity="0.4"/>
  <rect x="374" y="178" width="5" height="4" fill="#FEF08A" opacity="0.55"/>
  <rect x="630" y="215" width="5" height="4" fill="#FEF08A" opacity="0.6"/>
  <rect x="642" y="215" width="5" height="4" fill="#FEF08A" opacity="0.45"/>
  <rect x="695" y="235" width="5" height="4" fill="#7DD3FC" opacity="0.5"/>
  <rect x="0" y="295" width="800" height="18" fill="#374151"/>
  <rect x="0" y="300" width="800" height="8" fill="#4B5563" opacity="0.4"/>
  <rect x="0" y="390" width="800" height="60" fill="#000000" opacity="0.48"/>
  <text x="400" y="422" font-family="Georgia,serif" font-size="30" font-weight="bold" fill="white" text-anchor="middle" letter-spacing="8">GHAZIABAD</text>
  <text x="400" y="441" font-family="Arial,sans-serif" font-size="12" fill="#9CA3AF" text-anchor="middle" letter-spacing="3">Uttar Pradesh · Tier 1 City</text>
</svg>
