<svg xmlns="http://www.w3.org/2000/svg" viewBox="0 0 800 450">
  <defs>
    <linearGradient id="bg" x1="0" y1="0" x2="0" y2="1">
      <stop offset="0%" stop-color="#0C3547"/>
      <stop offset="50%" stop-color="#0E6B8C"/>
      <stop offset="100%" stop-color="#D4A017"/>
    </linearGradient>
  </defs>
  <rect width="800" height="450" fill="url(#bg)"/>
  <circle cx="400" cy="295" r="55" fill="#F59E0B" opacity="0.65"/>
  <circle cx="400" cy="295" r="38" fill="#FDE68A" opacity="0.5"/>
  <rect x="0" y="315" width="800" height="135" fill="#1A0F00"/>
  <rect x="325" y="288" width="150" height="27" fill="#1C1100"/>
  <rect x="340" y="212" width="120" height="76" fill="#1C1100"/>
  <ellipse cx="366" cy="250" rx="16" ry="20" fill="#0E6B8C"/>
  <rect x="350" y="250" width="32" height="22" fill="#0E6B8C"/>
  <ellipse cx="400" cy="250" rx="16" ry="20" fill="#0E6B8C"/>
  <rect x="384" y="250" width="32" height="22" fill="#0E6B8C"/>
  <ellipse cx="434" cy="250" rx="16" ry="20" fill="#0E6B8C"/>
  <rect x="418" y="250" width="32" height="22" fill="#0E6B8C"/>
  <rect x="330" y="167" width="22" height="121" fill="#1C1100"/>
  <ellipse cx="341" cy="165" rx="13" ry="9" fill="#1C1100"/>
  <rect x="334" y="152" width="14" height="16" fill="#1C1100"/>
  <ellipse cx="341" cy="150" rx="7" ry="10" fill="#D4A017"/>
  <rect x="448" y="167" width="22" height="121" fill="#1C1100"/>
  <ellipse cx="459" cy="165" rx="13" ry="9" fill="#1C1100"/>
  <rect x="452" y="152" width="14" height="16" fill="#1C1100"/>
  <ellipse cx="459" cy="150" rx="7" ry="10" fill="#D4A017"/>
  <rect x="342" y="182" width="18" height="106" fill="#150D00"/>
  <ellipse cx="351" cy="180" rx="11" ry="7" fill="#150D00"/>
  <rect x="345" y="169" width="12" height="14" fill="#150D00"/>
  <ellipse cx="351" cy="167" rx="6" ry="8" fill="#B8860B"/>
  <rect x="440" y="182" width="18" height="106" fill="#150D00"/>
  <ellipse cx="449" cy="180" rx="11" ry="7" fill="#150D00"/>
  <rect x="443" y="169" width="12" height="14" fill="#150D00"/>
  <ellipse cx="449" cy="167" rx="6" ry="8" fill="#B8860B"/>
  <rect x="326" y="214" width="30" height="5" fill="#1C1100"/>
  <rect x="444" y="214" width="30" height="5" fill="#1C1100"/>
  <rect x="0" y="278" width="315" height="37" fill="#150D00"/>
  <rect x="485" y="278" width="315" height="37" fill="#150D00"/>
  <ellipse cx="400" cy="212" rx="30" ry="12" fill="#1C1100"/>
  <rect x="0" y="390" width="800" height="60" fill="#000000" opacity="0.48"/>
  <text x="400" y="422" font-family="Georgia,serif" font-size="30" font-weight="bold" fill="white" text-anchor="middle" letter-spacing="8">HYDERABAD</text>
  <text x="400" y="441" font-family="Arial,sans-serif" font-size="12" fill="#FDE68A" text-anchor="middle" letter-spacing="3">Telangana · Metro City</text>
</svg>
