<svg xmlns="http://www.w3.org/2000/svg" viewBox="0 0 800 450">
  <defs>
    <linearGradient id="bg" x1="0" y1="0" x2="0" y2="1">
      <stop offset="0%" stop-color="#4C1D95"/>
      <stop offset="55%" stop-color="#7C3AED"/>
      <stop offset="100%" stop-color="#C4B5FD"/>
    </linearGradient>
  </defs>
  <rect width="800" height="450" fill="url(#bg)"/>
  <circle cx="160" cy="95" r="30" fill="white" opacity="0.7"/>
  <circle cx="640" cy="78" r="22" fill="white" opacity="0.55"/>
  <circle cx="400" cy="52" r="2" fill="white" opacity="0.7"/>
  <circle cx="280" cy="68" r="1.5" fill="white" opacity="0.6"/>
  <circle cx="560" cy="62" r="1.5" fill="white" opacity="0.65"/>
  <rect x="0" y="310" width="800" height="140" fill="#1C1917"/>
  <rect x="260" y="225" width="280" height="85" fill="#1C0A00"/>
  <rect x="270" y="215" width="260" height="12" fill="#1C0A00"/>
  <rect x="280" y="205" width="240" height="12" fill="#1C0A00"/>
  <rect x="295" y="192" width="210" height="15" fill="#1C0A00"/>
  <ellipse cx="330" cy="248" rx="20" ry="25" fill="#7C3AED"/>
  <rect x="310" y="248" width="40" height="27" fill="#7C3AED"/>
  <ellipse cx="400" cy="244" rx="24" ry="30" fill="#7C3AED"/>
  <rect x="376" y="244" width="48" height="32" fill="#7C3AED"/>
  <ellipse cx="470" cy="248" rx="20" ry="25" fill="#7C3AED"/>
  <rect x="450" y="248" width="40" height="27" fill="#7C3AED"/>
  <rect x="263" y="170" width="18" height="57" fill="#1C0A00"/>
  <ellipse cx="272" cy="168" rx="11" ry="8" fill="#1C0A00"/>
  <rect x="265" y="155" width="14" height="16" fill="#1C0A00"/>
  <ellipse cx="272" cy="153" rx="8" ry="11" fill="#A78BFA"/>
  <rect x="519" y="170" width="18" height="57" fill="#1C0A00"/>
  <ellipse cx="528" cy="168" rx="11" ry="8" fill="#1C0A00"/>
  <rect x="521" y="155" width="14" height="16" fill="#1C0A00"/>
  <ellipse cx="528" cy="153" rx="8" ry="11" fill="#A78BFA"/>
  <rect x="0" y="390" width="800" height="60" fill="#000000" opacity="0.48"/>
  <text x="400" y="422" font-family="Georgia,serif" font-size="30" font-weight="bold" fill="white" text-anchor="middle" letter-spacing="8">INDORE</text>
  <text x="400" y="441" font-family="Arial,sans-serif" font-size="12" fill="#DDD6FE" text-anchor="middle" letter-spacing="3">Madhya Pradesh · Tier 1 City</text>
</svg>
