<svg xmlns="http://www.w3.org/2000/svg" viewBox="0 0 800 450">
  <defs>
    <linearGradient id="bg" x1="0" y1="0" x2="0" y2="1">
      <stop offset="0%" stop-color="#831843"/>
      <stop offset="58%" stop-color="#DB2777"/>
      <stop offset="100%" stop-color="#FBCFE8"/>
    </linearGradient>
  </defs>
  <rect width="800" height="450" fill="url(#bg)"/>
  <circle cx="618" cy="118" r="38" fill="#FEF3C7" opacity="0.82"/>
  <rect x="0" y="312" width="800" height="138" fill="#78350F" opacity="0.88"/>
  <rect x="0" y="310" width="800" height="7" fill="#92400E" opacity="0.55"/>
  <rect x="278" y="162" width="244" height="148" fill="#1C0A00"/>
  <ellipse cx="318" cy="187" rx="12" ry="16" fill="#DB2777"/>
  <rect x="306" y="187" width="24" height="18" fill="#DB2777"/>
  <ellipse cx="358" cy="187" rx="12" ry="16" fill="#DB2777"/>
  <rect x="346" y="187" width="24" height="18" fill="#DB2777"/>
  <ellipse cx="398" cy="187" rx="12" ry="16" fill="#DB2777"/>
  <rect x="386" y="187" width="24" height="18" fill="#DB2777"/>
  <ellipse cx="438" cy="187" rx="12" ry="16" fill="#DB2777"/>
  <rect x="426" y="187" width="24" height="18" fill="#DB2777"/>
  <ellipse cx="478" cy="187" rx="12" ry="16" fill="#DB2777"/>
  <rect x="466" y="187" width="24" height="18" fill="#DB2777"/>
  <ellipse cx="318" cy="219" rx="12" ry="16" fill="#EC4899"/>
  <rect x="306" y="219" width="24" height="18" fill="#EC4899"/>
  <ellipse cx="358" cy="219" rx="12" ry="16" fill="#EC4899"/>
  <rect x="346" y="219" width="24" height="18" fill="#EC4899"/>
  <ellipse cx="398" cy="219" rx="12" ry="16" fill="#EC4899"/>
  <rect x="386" y="219" width="24" height="18" fill="#EC4899"/>
  <ellipse cx="438" cy="219" rx="12" ry="16" fill="#EC4899"/>
  <rect x="426" y="219" width="24" height="18" fill="#EC4899"/>
  <ellipse cx="478" cy="219" rx="12" ry="16" fill="#EC4899"/>
  <rect x="466" y="219" width="24" height="18" fill="#EC4899"/>
  <ellipse cx="318" cy="251" rx="12" ry="16" fill="#DB2777"/>
  <rect x="306" y="251" width="24" height="18" fill="#DB2777"/>
  <ellipse cx="358" cy="251" rx="12" ry="16" fill="#DB2777"/>
  <rect x="346" y="251" width="24" height="18" fill="#DB2777"/>
  <ellipse cx="398" cy="251" rx="12" ry="16" fill="#DB2777"/>
  <rect x="386" y="251" width="24" height="18" fill="#DB2777"/>
  <ellipse cx="438" cy="251" rx="12" ry="16" fill="#DB2777"/>
  <rect x="426" y="251" width="24" height="18" fill="#DB2777"/>
  <ellipse cx="478" cy="251" rx="12" ry="16" fill="#DB2777"/>
  <rect x="466" y="251" width="24" height="18" fill="#DB2777"/>
  <polygon points="298,162 306,142 314,162" fill="#1C0A00"/>
  <polygon points="338,162 346,142 354,162" fill="#1C0A00"/>
  <polygon points="378,162 386,140 394,162" fill="#1C0A00"/>
  <polygon points="418,162 426,140 434,162" fill="#1C0A00"/>
  <polygon points="458,162 466,142 474,162" fill="#1C0A00"/>
  <polygon points="498,162 506,142 514,162" fill="#1C0A00"/>
  <rect x="0" y="390" width="800" height="60" fill="#000000" opacity="0.48"/>
  <text x="400" y="422" font-family="Georgia,serif" font-size="30" font-weight="bold" fill="white" text-anchor="middle" letter-spacing="8">JAIPUR</text>
  <text x="400" y="441" font-family="Arial,sans-serif" font-size="12" fill="#FBCFE8" text-anchor="middle" letter-spacing="3">Rajasthan · Tier 1 City</text>
</svg>
