<svg xmlns="http://www.w3.org/2000/svg" viewBox="0 0 800 450">
  <defs>
    <linearGradient id="bg" x1="0" y1="0" x2="0" y2="1">
      <stop offset="0%" stop-color="#78350F"/>
      <stop offset="55%" stop-color="#D97706"/>
      <stop offset="100%" stop-color="#FDE68A"/>
    </linearGradient>
  </defs>
  <rect width="800" height="450" fill="url(#bg)"/>
  <circle cx="400" cy="198" r="52" fill="#FEF3C7" opacity="0.75"/>
  <circle cx="400" cy="198" r="75" fill="#FDE68A" opacity="0.15"/>
  <rect x="0" y="310" width="800" height="140" fill="#052E16"/>
  <ellipse cx="400" cy="322" rx="178" ry="11" fill="#075985" opacity="0.45"/>
  <rect x="200" y="262" width="128" height="48" fill="#1C1917"/>
  <rect x="472" y="262" width="128" height="48" fill="#1C1917"/>
  <ellipse cx="238" cy="280" rx="13" ry="16" fill="#D97706"/>
  <rect x="225" y="280" width="26" height="17" fill="#D97706"/>
  <ellipse cx="276" cy="280" rx="13" ry="16" fill="#D97706"/>
  <rect x="263" y="280" width="26" height="17" fill="#D97706"/>
  <ellipse cx="524" cy="280" rx="13" ry="16" fill="#D97706"/>
  <rect x="511" y="280" width="26" height="17" fill="#D97706"/>
  <ellipse cx="562" cy="280" rx="13" ry="16" fill="#D97706"/>
  <rect x="549" y="280" width="26" height="17" fill="#D97706"/>
  <rect x="293" y="235" width="214" height="75" fill="#1C1917"/>
  <ellipse cx="338" cy="270" rx="15" ry="19" fill="#D97706"/>
  <rect x="323" y="270" width="30" height="21" fill="#D97706"/>
  <ellipse cx="400" cy="270" rx="18" ry="22" fill="#D97706"/>
  <rect x="382" y="270" width="36" height="24" fill="#D97706"/>
  <ellipse cx="462" cy="270" rx="15" ry="19" fill="#D97706"/>
  <rect x="447" y="270" width="30" height="21" fill="#D97706"/>
  <ellipse cx="400" cy="235" rx="55" ry="30" fill="#1C1917"/>
  <ellipse cx="400" cy="208" rx="40" ry="42" fill="#1C1917"/>
  <rect x="394" y="160" width="12" height="20" fill="#1C1917"/>
  <ellipse cx="400" cy="158" rx="8" ry="6" fill="#D4AF37"/>
  <ellipse cx="293" cy="235" rx="20" ry="28" fill="#1C1917"/>
  <rect x="286" y="207" width="14" height="10" fill="#1C1917"/>
  <ellipse cx="293" cy="205" rx="8" ry="6" fill="#D4AF37"/>
  <ellipse cx="507" cy="235" rx="20" ry="28" fill="#1C1917"/>
  <rect x="500" y="207" width="14" height="10" fill="#1C1917"/>
  <ellipse cx="507" cy="205" rx="8" ry="6" fill="#D4AF37"/>
  <rect x="0" y="270" width="155" height="5" fill="#0F172A" opacity="0.55"/>
  <rect x="645" y="270" width="155" height="5" fill="#0F172A" opacity="0.55"/>
  <rect x="48" y="228" width="16" height="47" fill="#0F172A" opacity="0.58"/>
  <line x1="56" y1="228" x2="0" y2="276" stroke="#0F172A" stroke-width="2" opacity="0.4"/>
  <line x1="56" y1="228" x2="80" y2="276" stroke="#0F172A" stroke-width="2" opacity="0.4"/>
  <line x1="56" y1="228" x2="140" y2="276" stroke="#0F172A" stroke-width="2" opacity="0.4"/>
  <rect x="0" y="390" width="800" height="60" fill="#000000" opacity="0.48"/>
  <text x="400" y="422" font-family="Georgia,serif" font-size="30" font-weight="bold" fill="white" text-anchor="middle" letter-spacing="8">KOLKATA</text>
  <text x="400" y="441" font-family="Arial,sans-serif" font-size="12" fill="#FDE68A" text-anchor="middle" letter-spacing="3">West Bengal · Metro City</text>
</svg>
