<svg xmlns="http://www.w3.org/2000/svg" viewBox="0 0 800 450">
  <defs>
    <linearGradient id="bg" x1="0" y1="0" x2="0" y2="1">
      <stop offset="0%" stop-color="#78350F"/>
      <stop offset="55%" stop-color="#B45309"/>
      <stop offset="100%" stop-color="#FDE68A"/>
    </linearGradient>
  </defs>
  <rect width="800" height="450" fill="url(#bg)"/>
  <circle cx="400" cy="158" r="44" fill="#FEF3C7" opacity="0.8"/>
  <rect x="0" y="312" width="800" height="138" fill="#0C2A4A"/>
  <path d="M0 322 Q200 314 400 322 Q600 330 800 322 L800 334 Q600 342 400 334 Q200 326 0 334Z" fill="#38BDF8" opacity="0.15"/>
  <rect x="260" y="248" width="280" height="64" fill="#1C0A00"/>
  <ellipse cx="320" cy="272" rx="24" ry="30" fill="#B45309"/>
  <rect x="296" y="272" width="48" height="32" fill="#B45309"/>
  <ellipse cx="400" cy="268" rx="28" ry="36" fill="#B45309"/>
  <rect x="372" y="268" width="56" height="38" fill="#B45309"/>
  <ellipse cx="480" cy="272" rx="24" ry="30" fill="#B45309"/>
  <rect x="456" y="272" width="48" height="32" fill="#B45309"/>
  <rect x="265" y="182" width="20" height="70" fill="#1C0A00"/>
  <ellipse cx="275" cy="180" rx="12" ry="9" fill="#1C0A00"/>
  <rect x="268" y="165" width="14" height="18" fill="#1C0A00"/>
  <ellipse cx="275" cy="163" rx="8" ry="12" fill="#D4AF37"/>
  <rect x="515" y="182" width="20" height="70" fill="#1C0A00"/>
  <ellipse cx="525" cy="180" rx="12" ry="9" fill="#1C0A00"/>
  <rect x="518" y="165" width="14" height="18" fill="#1C0A00"/>
  <ellipse cx="525" cy="163" rx="8" ry="12" fill="#D4AF37"/>
  <rect x="295" y="158" width="18" height="94" fill="#150A00"/>
  <rect x="487" y="158" width="18" height="94" fill="#150A00"/>
  <ellipse cx="304" cy="156" rx="10" ry="8" fill="#D4AF37"/>
  <ellipse cx="496" cy="156" rx="10" ry="8" fill="#D4AF37"/>
  <rect x="0" y="390" width="800" height="60" fill="#000000" opacity="0.48"/>
  <text x="400" y="422" font-family="Georgia,serif" font-size="30" font-weight="bold" fill="white" text-anchor="middle" letter-spacing="8">LUCKNOW</text>
  <text x="400" y="441" font-family="Arial,sans-serif" font-size="12" fill="#FDE68A" text-anchor="middle" letter-spacing="3">Uttar Pradesh · Tier 1 City</text>
</svg>
