<svg xmlns="http://www.w3.org/2000/svg" viewBox="0 0 800 450">
  <defs>
    <linearGradient id="bg" x1="0" y1="0" x2="0" y2="1">
      <stop offset="0%" stop-color="#7C2D12"/>
      <stop offset="55%" stop-color="#EA580C"/>
      <stop offset="100%" stop-color="#FED7AA"/>
    </linearGradient>
  </defs>
  <rect width="800" height="450" fill="url(#bg)"/>
  <circle cx="400" cy="155" r="42" fill="#FEF3C7" opacity="0.8"/>
  <circle cx="400" cy="155" r="62" fill="#FDE68A" opacity="0.18"/>
  <rect x="0" y="315" width="800" height="135" fill="#0C2A4A"/>
  <path d="M0 315 Q200 306 400 315 Q600 324 800 315 L800 328 Q600 337 400 328 Q200 319 0 328Z" fill="#1E40AF" opacity="0.25"/>
  <rect x="280" y="330" width="240" height="2" rx="1" fill="#93C5FD" opacity="0.3"/>
  <rect x="240" y="342" width="320" height="2" rx="1" fill="#93C5FD" opacity="0.18"/>
  <rect x="0" y="248" width="44" height="67" fill="#0F172A"/>
  <rect x="49" y="230" width="37" height="85" fill="#0F172A"/>
  <rect x="91" y="255" width="31" height="60" fill="#0F172A"/>
  <rect x="127" y="238" width="40" height="77" fill="#0F172A"/>
  <rect x="7" y="258" width="5" height="4" fill="#FEF08A" opacity="0.55"/>
  <rect x="18" y="258" width="5" height="4" fill="#FEF08A" opacity="0.4"/>
  <rect x="57" y="240" width="5" height="4" fill="#FEF08A" opacity="0.6"/>
  <rect x="68" y="240" width="5" height="4" fill="#FEF08A" opacity="0.45"/>
  <rect x="335" y="298" width="130" height="17" fill="#1C1917"/>
  <rect x="345" y="238" width="110" height="60" fill="#1C1917"/>
  <ellipse cx="400" cy="264" rx="27" ry="32" fill="#EA580C"/>
  <rect x="373" y="264" width="54" height="34" fill="#EA580C"/>
  <rect x="339" y="210" width="17" height="32" fill="#1C1917"/>
  <rect x="444" y="210" width="17" height="32" fill="#1C1917"/>
  <ellipse cx="347" cy="207" rx="10" ry="7" fill="#1C1917"/>
  <ellipse cx="453" cy="207" rx="10" ry="7" fill="#1C1917"/>
  <rect x="345" y="232" width="8" height="7" fill="#1C1917"/>
  <rect x="356" y="232" width="8" height="7" fill="#1C1917"/>
  <rect x="367" y="232" width="8" height="7" fill="#1C1917"/>
  <rect x="421" y="232" width="8" height="7" fill="#1C1917"/>
  <rect x="432" y="232" width="8" height="7" fill="#1C1917"/>
  <rect x="443" y="232" width="8" height="7" fill="#1C1917"/>
  <rect x="358" y="314" width="84" height="4" fill="#1C1917"/>
  <rect x="533" y="240" width="40" height="75" fill="#0F172A"/>
  <rect x="578" y="220" width="46" height="95" fill="#0F172A"/>
  <rect x="629" y="248" width="34" height="67" fill="#0F172A"/>
  <rect x="668" y="223" width="47" height="92" fill="#0F172A"/>
  <rect x="720" y="202" width="80" height="113" fill="#0F172A"/>
  <rect x="543" y="250" width="5" height="4" fill="#FEF08A" opacity="0.6"/>
  <rect x="554" y="250" width="5" height="4" fill="#FEF08A" opacity="0.45"/>
  <rect x="588" y="230" width="5" height="4" fill="#FEF08A" opacity="0.7"/>
  <rect x="600" y="230" width="5" height="4" fill="#FEF08A" opacity="0.5"/>
  <rect x="678" y="233" width="5" height="4" fill="#FEF08A" opacity="0.6"/>
  <rect x="689" y="233" width="5" height="4" fill="#FEF08A" opacity="0.45"/>
  <rect x="730" y="212" width="5" height="4" fill="#FEF08A" opacity="0.65"/>
  <rect x="749" y="212" width="5" height="4" fill="#FEF08A" opacity="0.5"/>
  <rect x="0" y="390" width="800" height="60" fill="#000000" opacity="0.48"/>
  <text x="400" y="422" font-family="Georgia,serif" font-size="30" font-weight="bold" fill="white" text-anchor="middle" letter-spacing="8">MUMBAI</text>
  <text x="400" y="441" font-family="Arial,sans-serif" font-size="12" fill="#FED7AA" text-anchor="middle" letter-spacing="3">Maharashtra · Metro City</text>
</svg>
