<svg xmlns="http://www.w3.org/2000/svg" viewBox="0 0 800 450">
  <defs>
    <linearGradient id="bg" x1="0" y1="0" x2="0" y2="1">
      <stop offset="0%" stop-color="#7C2D12"/>
      <stop offset="52%" stop-color="#EA580C"/>
      <stop offset="100%" stop-color="#FED7AA"/>
    </linearGradient>
  </defs>
  <rect width="800" height="450" fill="url(#bg)"/>
  <circle cx="400" cy="155" r="46" fill="#FEF3C7" opacity="0.85"/>
  <rect x="0" y="312" width="800" height="138" fill="#052E16"/>
  <rect x="0" y="310" width="800" height="6" fill="#166534" opacity="0.5"/>
  <ellipse cx="400" cy="312" rx="60" ry="8" fill="#14532D" opacity="0.6"/>
  <ellipse cx="400" cy="245" rx="90" ry="72" fill="#1C0A00"/>
  <ellipse cx="400" cy="228" rx="70" ry="56" fill="#1C0A00"/>
  <ellipse cx="400" cy="212" rx="50" ry="40" fill="#150A00"/>
  <rect x="393" y="160" width="14" height="55" fill="#1C0A00"/>
  <ellipse cx="400" cy="158" rx="9" ry="7" fill="#1C0A00"/>
  <rect x="396" y="140" width="8" height="22" fill="#1C0A00"/>
  <ellipse cx="400" cy="138" rx="5" ry="8" fill="#D4AF37"/>
  <rect x="315" y="280" width="18" height="32" fill="#1C0A00"/>
  <ellipse cx="324" cy="278" rx="10" ry="7" fill="#D4AF37"/>
  <rect x="467" y="280" width="18" height="32" fill="#1C0A00"/>
  <ellipse cx="476" cy="278" rx="10" ry="7" fill="#D4AF37"/>
  <circle cx="140" cy="210" r="18" fill="#EA580C" opacity="0.6"/>
  <circle cx="660" cy="200" r="14" fill="#EA580C" opacity="0.5"/>
  <circle cx="220" cy="250" r="12" fill="#FB923C" opacity="0.45"/>
  <circle cx="580" cy="240" r="15" fill="#FB923C" opacity="0.4"/>
  <rect x="0" y="390" width="800" height="60" fill="#000000" opacity="0.48"/>
  <text x="400" y="422" font-family="Georgia,serif" font-size="30" font-weight="bold" fill="white" text-anchor="middle" letter-spacing="8">NAGPUR</text>
  <text x="400" y="441" font-family="Arial,sans-serif" font-size="12" fill="#FED7AA" text-anchor="middle" letter-spacing="3">Maharashtra · Tier 1 City</text>
</svg>
