<svg xmlns="http://www.w3.org/2000/svg" viewBox="0 0 800 450">
  <defs>
    <linearGradient id="bg" x1="0" y1="0" x2="0" y2="1">
      <stop offset="0%" stop-color="#92400E"/>
      <stop offset="50%" stop-color="#F59E0B"/>
      <stop offset="100%" stop-color="#FEF3C7"/>
    </linearGradient>
    <linearGradient id="ganga" x1="0" y1="0" x2="0" y2="1">
      <stop offset="0%" stop-color="#0369A1"/>
      <stop offset="100%" stop-color="#075985"/>
    </linearGradient>
  </defs>
  <rect width="800" height="450" fill="url(#bg)"/>
  <circle cx="400" cy="140" r="52" fill="#FEF3C7" opacity="0.88"/>
  <circle cx="400" cy="140" r="72" fill="#FDE68A" opacity="0.2"/>
  <rect x="0" y="295" width="800" height="30" fill="url(#ganga)"/>
  <path d="M0 305 Q200 297 400 305 Q600 313 800 305 L800 318 Q600 326 400 318 Q200 310 0 318Z" fill="#38BDF8" opacity="0.2"/>
  <rect x="0" y="325" width="800" height="125" fill="#7C4A1A"/>
  <rect x="150" y="255" width="55" height="40" fill="#1C0A00"/>
  <rect x="170" y="242" width="15" height="15" fill="#1C0A00"/>
  <rect x="165" y="228" width="25" height="16" fill="#1C0A00"/>
  <rect x="176" y="210" width="8" height="20" fill="#1C0A00"/>
  <polygon points="180,204 174,212 186,212" fill="#D4AF37"/>
  <rect x="360" y="248" width="80" height="47" fill="#1C0A00"/>
  <rect x="378" y="234" width="44" height="16" fill="#1C0A00"/>
  <rect x="391" y="215" width="18" height="21" fill="#1C0A00"/>
  <polygon points="400,208 391,217 409,217" fill="#D4AF37"/>
  <rect x="595" y="260" width="55" height="35" fill="#1C0A00"/>
  <rect x="610" y="248" width="24" height="14" fill="#1C0A00"/>
  <rect x="614" y="232" width="16" height="18" fill="#1C0A00"/>
  <polygon points="622,226 615,234 629,234" fill="#D4AF37"/>
  <rect x="55" y="268" width="65" height="27" fill="#0F172A" opacity="0.55"/>
  <rect x="680" y="265" width="70" height="30" fill="#0F172A" opacity="0.55"/>
  <rect x="0" y="390" width="800" height="60" fill="#000000" opacity="0.45"/>
  <text x="400" y="422" font-family="Georgia,serif" font-size="30" font-weight="bold" fill="#1C0A00" text-anchor="middle" letter-spacing="8">PATNA</text>
  <text x="400" y="441" font-family="Arial,sans-serif" font-size="12" fill="#78350F" text-anchor="middle" letter-spacing="3">Bihar · Tier 1 City</text>
</svg>
