<svg xmlns="http://www.w3.org/2000/svg" viewBox="0 0 800 450">
  <defs>
    <linearGradient id="bg" x1="0" y1="0" x2="0" y2="1">
      <stop offset="0%" stop-color="#064E3B"/>
      <stop offset="52%" stop-color="#059669"/>
      <stop offset="100%" stop-color="#6EE7B7"/>
    </linearGradient>
  </defs>
  <rect width="800" height="450" fill="url(#bg)"/>
  <circle cx="380" cy="130" r="40" fill="#FEF3C7" opacity="0.78"/>
  <path d="M0 260 Q150 230 300 248 Q450 265 600 240 Q700 225 800 238 L800 315 L0 315Z" fill="#052E16"/>
  <path d="M0 278 Q100 265 200 272 Q320 282 450 265 Q580 248 800 260 L800 315 L0 315Z" fill="#065F46" opacity="0.6"/>
  <rect x="0" y="315" width="800" height="135" fill="#052E16"/>
  <rect x="320" y="198" width="160" height="62" fill="#1C1917"/>
  <rect x="330" y="190" width="140" height="10" fill="#1C1917"/>
  <rect x="338" y="182" width="124" height="10" fill="#1C1917"/>
  <rect x="346" y="170" width="108" height="14" fill="#1C1917"/>
  <rect x="354" y="158" width="92" height="14" fill="#1C1917"/>
  <rect x="376" y="132" width="48" height="28" fill="#1C1917"/>
  <polygon points="400,120 376,133 424,133" fill="#1C1917"/>
  <rect x="374" y="108" width="8" height="14" fill="#1C1917"/>
  <polygon points="378,105 370,110 386,110" fill="#D4AF37"/>
  <rect x="418" y="108" width="8" height="14" fill="#1C1917"/>
  <polygon points="422,105 414,110 430,110" fill="#D4AF37"/>
  <ellipse cx="158" cy="262" rx="55" ry="35" fill="#14532D"/>
  <ellipse cx="130" cy="270" rx="45" ry="28" fill="#166534"/>
  <ellipse cx="640" cy="258" rx="55" ry="35" fill="#14532D"/>
  <ellipse cx="668" cy="265" rx="45" ry="28" fill="#166534"/>
  <rect x="0" y="390" width="800" height="60" fill="#000000" opacity="0.48"/>
  <text x="400" y="422" font-family="Georgia,serif" font-size="30" font-weight="bold" fill="white" text-anchor="middle" letter-spacing="8">PUNE</text>
  <text x="400" y="441" font-family="Arial,sans-serif" font-size="12" fill="#A7F3D0" text-anchor="middle" letter-spacing="3">Maharashtra · Tier 1 City</text>
</svg>
