<svg xmlns="http://www.w3.org/2000/svg" viewBox="0 0 800 450">
  <defs>
    <linearGradient id="bg" x1="0" y1="0" x2="0" y2="1">
      <stop offset="0%" stop-color="#1E3A8A"/>
      <stop offset="55%" stop-color="#2563EB"/>
      <stop offset="100%" stop-color="#BFDBFE"/>
    </linearGradient>
  </defs>
  <rect width="800" height="450" fill="url(#bg)"/>
  <circle cx="620" cy="112" r="36" fill="#FEF3C7" opacity="0.82"/>
  <rect x="0" y="312" width="800" height="138" fill="#14532D"/>
  <rect x="0" y="310" width="800" height="6" fill="#166534" opacity="0.55"/>
  <rect x="240" y="215" width="320" height="95" fill="#0F172A"/>
  <rect x="255" y="205" width="290" height="12" fill="#0F172A"/>
  <rect x="270" y="195" width="260" height="12" fill="#0F172A"/>
  <ellipse cx="340" cy="245" rx="22" ry="28" fill="#2563EB"/>
  <rect x="318" y="245" width="44" height="30" fill="#2563EB"/>
  <ellipse cx="400" cy="238" rx="28" ry="36" fill="#2563EB"/>
  <rect x="372" y="238" width="56" height="38" fill="#2563EB"/>
  <ellipse cx="460" cy="245" rx="22" ry="28" fill="#2563EB"/>
  <rect x="438" y="245" width="44" height="30" fill="#2563EB"/>
  <rect x="243" y="172" width="18" height="45" fill="#0F172A"/>
  <ellipse cx="252" cy="170" rx="11" ry="8" fill="#0F172A"/>
  <rect x="245" y="157" width="14" height="16" fill="#0F172A"/>
  <ellipse cx="252" cy="155" rx="8" ry="11" fill="#D4AF37"/>
  <rect x="539" y="172" width="18" height="45" fill="#0F172A"/>
  <ellipse cx="548" cy="170" rx="11" ry="8" fill="#0F172A"/>
  <rect x="541" y="157" width="14" height="16" fill="#0F172A"/>
  <ellipse cx="548" cy="155" rx="8" ry="11" fill="#D4AF37"/>
  <rect x="388" y="165" width="24" height="32" fill="#0F172A"/>
  <ellipse cx="400" cy="163" rx="14" ry="10" fill="#0F172A"/>
  <rect x="393" y="148" width="14" height="18" fill="#0F172A"/>
  <ellipse cx="400" cy="146" rx="9" ry="12" fill="#D4AF37"/>
  <rect x="0" y="390" width="800" height="60" fill="#000000" opacity="0.48"/>
  <text x="400" y="422" font-family="Georgia,serif" font-size="30" font-weight="bold" fill="white" text-anchor="middle" letter-spacing="8">VADODARA</text>
  <text x="400" y="441" font-family="Arial,sans-serif" font-size="12" fill="#BFDBFE" text-anchor="middle" letter-spacing="3">Gujarat · Tier 1 City</text>
</svg>
